<svg width="30" height="30" viewBox="0 0 30 30" fill="none" xmlns="http://www.w3.org/2000/svg">
<rect width="30" height="30" rx="15" fill="#0070F4"/>
<g filter="url(#filter0_d_20_2842)">
<path d="M14.6534 22.3807V8.57386H15.5379V22.3807H14.6534ZM17.6305 12.7159C17.5658 12.1694 17.3033 11.7451 16.8431 11.4431C16.3829 11.1411 15.8184 10.9901 15.1496 10.9901C14.6606 10.9901 14.2327 11.0692 13.866 11.2274C13.5028 11.3856 13.2188 11.6031 13.0139 11.8799C12.8125 12.1568 12.7118 12.4714 12.7118 12.8238C12.7118 13.1186 12.7819 13.3721 12.9222 13.5842C13.066 13.7928 13.2494 13.9672 13.4723 14.1074C13.6952 14.244 13.9289 14.3573 14.1734 14.4472C14.4179 14.5334 14.6426 14.6036 14.8476 14.6575L15.9694 14.9595C16.257 15.035 16.577 15.1393 16.9294 15.2723C17.2853 15.4054 17.6251 15.5869 17.9487 15.817C18.2759 16.0436 18.5456 16.3348 18.7577 16.6908C18.9698 17.0467 19.0759 17.4836 19.0759 18.0013C19.0759 18.5982 18.9195 19.1375 18.6067 19.6193C18.2975 20.1011 17.8444 20.484 17.2476 20.7681C16.6543 21.0521 15.9334 21.1942 15.0849 21.1942C14.2939 21.1942 13.6089 21.0665 13.03 20.8112C12.4548 20.556 12.0017 20.2 11.6709 19.7434C11.3437 19.2867 11.1586 18.7564 11.1154 18.1523H12.4961C12.5321 18.5694 12.6723 18.9146 12.9168 19.1879C13.1649 19.4575 13.4777 19.6589 13.8552 19.7919C14.2363 19.9213 14.6462 19.9861 15.0849 19.9861C15.5954 19.9861 16.0539 19.9034 16.4602 19.738C16.8665 19.569 17.1883 19.3353 17.4256 19.0368C17.6629 18.7348 17.7815 18.3825 17.7815 17.9798C17.7815 17.613 17.679 17.3146 17.4741 17.0845C17.2692 16.8544 16.9995 16.6674 16.6651 16.5236C16.3307 16.3797 15.9694 16.2539 15.5811 16.146L14.222 15.7577C13.359 15.5096 12.6759 15.1555 12.1725 14.6952C11.6691 14.235 11.4174 13.6328 11.4174 12.8885C11.4174 12.2701 11.5846 11.7307 11.919 11.2705C12.257 10.8067 12.71 10.4471 13.2781 10.1918C13.8498 9.93297 14.488 9.80353 15.1927 9.80353C15.9047 9.80353 16.5375 9.93117 17.0912 10.1865C17.6449 10.4381 18.0835 10.7833 18.4071 11.222C18.7343 11.6606 18.9069 12.1586 18.9249 12.7159H17.6305Z" fill="white"/>
</g>
<defs>
<filter id="filter0_d_20_2842" x="11.1154" y="8.57385" width="9.96051" height="15.8068" filterUnits="userSpaceOnUse" color-interpolation-filters="sRGB">
<feFlood flood-opacity="0" result="BackgroundImageFix"/>
<feColorMatrix in="SourceAlpha" type="matrix" values="0 0 0 0 0 0 0 0 0 0 0 0 0 0 0 0 0 0 127 0" result="hardAlpha"/>
<feOffset dx="1" dy="1"/>
<feGaussianBlur stdDeviation="0.5"/>
<feComposite in2="hardAlpha" operator="out"/>
<feColorMatrix type="matrix" values="0 0 0 0 0 0 0 0 0 0 0 0 0 0 0 0 0 0 0.3 0"/>
<feBlend mode="normal" in2="BackgroundImageFix" result="effect1_dropShadow_20_2842"/>
<feBlend mode="normal" in="SourceGraphic" in2="effect1_dropShadow_20_2842" result="shape"/>
</filter>
</defs>
</svg>
