<svg width="30" height="30" viewBox="0 0 30 30" fill="none" xmlns="http://www.w3.org/2000/svg">
    <rect width="30" height="30" rx="15" fill="#00B63E"/>
    <g clip-path="url(#clip0_408_12)">
        <path d="M15.5391 10.0709C15.3828 9.9303 15.2031 9.85999 15 9.85999C14.7969 9.85999 14.6172 9.9303 14.4609 10.0709L10.7109 13.8209C10.5703 13.9772 10.5 14.1569 10.5 14.36C10.5 14.5631 10.5703 14.7428 10.7109 14.899C10.8672 15.0397 11.0469 15.11 11.25 15.11C11.4531 15.11 11.6328 15.0397 11.7891 14.899L14.25 12.4147V19.61C14.25 19.8287 14.3203 20.0084 14.4609 20.149C14.6016 20.2897 14.7812 20.36 15 20.36C15.2188 20.36 15.3984 20.2897 15.5391 20.149C15.6797 20.0084 15.75 19.8287 15.75 19.61L15.75 12.4147L18.2109 14.899C18.3672 15.0397 18.5469 15.11 18.75 15.11C18.9531 15.11 19.1328 15.0397 19.2891 14.899C19.4297 14.7428 19.5 14.5631 19.5 14.36C19.5 14.1569 19.4297 13.9772 19.2891 13.8209L15.5391 10.0709Z" fill="white"/>
    </g>
    <defs>
        <clipPath id="clip0_408_12">
            <rect width="9" height="12.44" fill="white" transform="matrix(1 0 0 -1 10.5 21.33)"/>
        </clipPath>
    </defs>
</svg>
