<svg width="31" height="30" viewBox="0 0 31 30" fill="none" xmlns="http://www.w3.org/2000/svg">
<rect x="0.960022" width="30" height="30" rx="15" fill="#ED232F"/>
<g clip-path="url(#clip0_20_2854)">
<path d="M15.421 20.149C15.5772 20.2897 15.7569 20.36 15.96 20.36C16.1631 20.36 16.3428 20.2897 16.4991 20.149L20.2491 16.399C20.3897 16.2428 20.46 16.0631 20.46 15.86C20.46 15.6569 20.3897 15.4772 20.2491 15.3209C20.0928 15.1803 19.9131 15.11 19.71 15.11C19.5069 15.11 19.3272 15.1803 19.171 15.3209L16.71 17.8053V10.61C16.71 10.3912 16.6397 10.2115 16.4991 10.0709C16.3585 9.9303 16.1788 9.85999 15.96 9.85999C15.7413 9.85999 15.5616 9.9303 15.421 10.0709C15.2803 10.2115 15.21 10.3912 15.21 10.61V17.8053L12.7491 15.3209C12.5928 15.1803 12.4131 15.11 12.21 15.11C12.0069 15.11 11.8272 15.1803 11.671 15.3209C11.5303 15.4772 11.46 15.6569 11.46 15.86C11.46 16.0631 11.5303 16.2428 11.671 16.399L15.421 20.149Z" fill="white"/>
</g>
<defs>
<clipPath id="clip0_20_2854">
<rect width="9" height="12.44" fill="white" transform="matrix(1 0 0 -1 11.46 21.33)"/>
</clipPath>
</defs>
</svg>
