<svg width="31" height="30" viewBox="0 0 31 30" fill="none" xmlns="http://www.w3.org/2000/svg">
<rect x="0.470032" width="30" height="30" rx="15" fill="#FF8800"/>
<g clip-path="url(#clip0_20_2848)">
<path d="M13.6185 10.0475C13.3685 9.81311 13.1107 9.8053 12.845 10.024L9.51691 13.1647C9.28253 13.399 9.16534 13.6725 9.16534 13.985C9.16534 14.2975 9.28253 14.5709 9.51691 14.8053L12.845 17.9459C13.1107 18.1647 13.3685 18.1647 13.6185 17.9459C13.8372 17.6647 13.8372 17.399 13.6185 17.149L10.2903 13.985L13.6185 10.8209C13.8372 10.5709 13.8372 10.3131 13.6185 10.0475ZM16.97 10.61C16.9544 10.2975 16.806 10.0709 16.5247 9.9303C16.2278 9.8053 15.9622 9.84436 15.7278 10.0475L11.9778 13.4225C11.806 13.5787 11.72 13.7662 11.72 13.985C11.72 14.2037 11.806 14.3912 11.9778 14.5475L15.7278 17.9225C15.9622 18.1256 16.2278 18.1647 16.5247 18.0397C16.806 17.899 16.9544 17.6725 16.97 17.36V15.86H17.72C18.3607 15.8756 18.8919 16.0944 19.3138 16.5162C19.7357 16.9381 19.9544 17.4694 19.97 18.11C19.9544 18.4694 19.8919 18.7506 19.7825 18.9537C19.6732 19.1725 19.5638 19.3365 19.4544 19.4459C19.3138 19.5709 19.2357 19.7194 19.22 19.8912C19.2513 20.1725 19.4075 20.3287 19.6888 20.36C19.7513 20.36 19.8138 20.3444 19.8763 20.3131C20.0325 20.235 20.2982 20.0475 20.6732 19.7506C21.0482 19.4381 21.3919 18.9928 21.7044 18.4147C22.0325 17.8365 22.2044 17.11 22.22 16.235C22.1888 15.0631 21.7825 14.0944 21.0013 13.3287C20.2357 12.5475 19.2669 12.1412 18.095 12.11H16.97V10.61Z" fill="white"/>
</g>
<defs>
<clipPath id="clip0_20_2848">
<rect width="13.5" height="12.44" fill="white" transform="matrix(1 0 0 -1 8.72003 21.33)"/>
</clipPath>
</defs>
</svg>
